# xmcd
#
# Track frame offsets: 
#        150
#        12141
#        31418
#        53414
#        80821
#        98011
#        121027
#        139033
#        160059
#        179894
#        204286
#        225416
#        249442
#        267442
#        286746
#        308007
#        328354
#
# Disc length: 4597 seconds
#
# Revision: 1
# Processed by: cddbd v1.5.2PL0 Copyright (c) Steve Scherf et al.
# Submitted via: ExactAudioCopy v0.95b4
#
DISCID=dd11f311
DTITLE=Various Artist - 10 Years Euphonic - CD 1 compiled and mixed by Kyau &
DTITLE=Albert
DYEAR=2007
DGENRE=Trance
TTITLE0=Mirco de Govia - Dayturn (Album Version)
TTITLE1=Miro - By Your Side (Sonorous Remix)
TTITLE2=Sonorous - Last Sunday (Sonorous' Positive Ways Mix)
TTITLE3=Kyau and Albert - Always A Fool (Album Version)
TTITLE4=Sun Decade - Have It All (Thomas Penton Dub)
TTITLE5=Marc Marberg with Kyau and Albert - Megashira (Original Mix)
TTITLE6=Ronski Speed - 2Day (Original Mix)
TTITLE7=Kyau and Albert - Kiksu (Original Mix)
TTITLE8=Sonorous - Glass Garden (Original Mix)
TTITLE9=Above and Beyond vs. Andy Moor - Air For Life (Mirco de Govia Re
TTITLE9=mix)
TTITLE10=Kyau and Albert - Velvet Morning (Mirco de Gavia Remix)
TTITLE11=Kyau and Albert - Are You Fine? (Original Mix)
TTITLE12=Aly and Fila - Eye Of Hours (Ronski Speed Remix)
TTITLE13=Stoneface and Terminal - Super Nature (Original Mix)
TTITLE14=Armin van Buuren - Burned With Desire (Kyau and Albert Remix)
TTITLE15=Sebastian Sand - Strange Bends (Kyau and Albert Remix)
TTITLE16=Kyau and Albert - Made of Sun (Hard Dub)
EXTD=
EXTT0=
EXTT1=
EXTT2=
EXTT3=
EXTT4=
EXTT5=
EXTT6=
EXTT7=
EXTT8=
EXTT9=
EXTT10=
EXTT11=
EXTT12=
EXTT13=
EXTT14=
EXTT15=
EXTT16=
PLAYORDER=
